# xmcd
#
# Track frame offsets: 
#        150
#        16799
#        30878
#        46237
#        60001
#        80327
#        95148
#        111736
#        128879
#        143436
#        160074
#
# Disc length: 2372 seconds
#
# Revision: 0
# Processed by: cddbd v1.5.2PL0 Copyright (c) Steve Scherf et al.
# Submitted via: ExactAudioCopyFreeDBPlugin 1.0
#
DISCID=7c09420b
DTITLE=Broken Feet - Got Wine, Will Travel
DYEAR=2000
DGENRE=Blues
TTITLE0=No Brakeman On This Train
TTITLE1=Fuss And Fight
TTITLE2=Dead Cat On The Line
TTITLE3=Treat Me So Low Down
TTITLE4=Tobacco Road
TTITLE5=Big Black Mariah
TTITLE6=My Babe
TTITLE7=I Thank You
TTITLE8=Chicago Line
TTITLE9=Gangster Of Love
TTITLE10=Dust My Broom
EXTD=
EXTT0=
EXTT1=
EXTT2=
EXTT3=
EXTT4=
EXTT5=
EXTT6=
EXTT7=
EXTT8=
EXTT9=
EXTT10=
PLAYORDER=
